<mxfile host="app.diagrams.net" agent="Mozilla/5.0 (Windows NT 10.0; Win64; x64) AppleWebKit/537.36 (KHTML, like Gecko) Chrome/131.0.0.0 Safari/537.36" version="26.0.4">
  <diagram name="Page-1" id="84ZAWStaKSH1gC_Im0kX">
    <mxGraphModel dx="1686" dy="1582" grid="1" gridSize="10" guides="1" tooltips="1" connect="1" arrows="1" fold="1" page="1" pageScale="1" pageWidth="850" pageHeight="1100" math="0" shadow="0">
      <root>
        <mxCell id="0" />
        <mxCell id="1" parent="0" />
        <mxCell id="gCd-4j0y3lT0MiKqZrek-2" style="edgeStyle=orthogonalEdgeStyle;rounded=0;orthogonalLoop=1;jettySize=auto;html=1;entryX=0;entryY=0.5;entryDx=0;entryDy=0;" edge="1" parent="1" source="-qRNFbUYzHUVRTCJPart-1" target="gCd-4j0y3lT0MiKqZrek-1">
          <mxGeometry relative="1" as="geometry" />
        </mxCell>
        <mxCell id="-qRNFbUYzHUVRTCJPart-1" value="Pub/Sub" style="sketch=0;html=1;verticalAlign=top;labelPosition=center;verticalLabelPosition=bottom;align=center;spacingTop=-6;fontSize=11;fontStyle=1;fontColor=#999999;shape=image;aspect=fixed;imageAspect=0;image=data:image/svg+xml,PHN2ZyB4bWxucz0iaHR0cDovL3d3dy53My5vcmcvMjAwMC9zdmciIHhtbG5zOnY9Imh0dHBzOi8vdmVjdGEuaW8vbmFubyIgd2lkdGg9IjE4LjMxOTk5OTY5NDgyNDIyIiBoZWlnaHQ9IjIwLjAwMDAwMTkwNzM0ODYzMyIgdmlld0JveD0iMCAwIDE4LjMxOTk5OTY5NDgyNDIyIDIwLjAwMDAwMTkwNzM0ODYzMyI+JiN4YTsJPHN0eWxlIHR5cGU9InRleHQvY3NzIj4mI3hhOwkuc3Qwe2ZpbGw6IzY2OWRmNjt9JiN4YTsJLnN0MXtmaWxsOiM0Mjg1ZjQ7fSYjeGE7CS5zdDJ7ZmlsbDojYWVjYmZhO30mI3hhOwk8L3N0eWxlPiYjeGE7CTxkZWZzPiYjeGE7CQk8ZmlsdGVyIGlkPSJBIiB4PSI0LjY0IiB5PSI0LjE5IiB3aWR0aD0iMTQuNzMiIGhlaWdodD0iMTIuNzYiIGZpbHRlclVuaXRzPSJ1c2VyU3BhY2VPblVzZSIgY29sb3ItaW50ZXJwb2xhdGlvbi1maWx0ZXJzPSJzUkdCIj4mI3hhOwkJCTxmZUZsb29kIGZsb29kLWNvbG9yPSIjZmZmIi8+JiN4YTsJCQk8ZmVCbGVuZCBpbj0iU291cmNlR3JhcGhpYyIvPiYjeGE7CQk8L2ZpbHRlcj4mI3hhOwkJPG1hc2sgaWQ9IkIiIHg9IjQuNjQiIHk9IjQuMTkiIHdpZHRoPSIxNC43MyIgaGVpZ2h0PSIxMi43NiIgbWFza1VuaXRzPSJ1c2VyU3BhY2VPblVzZSI+JiN4YTsJCQk8Y2lyY2xlIGN4PSIxMiIgY3k9IjEyLjIzIiByPSIzLjU4IiBmaWx0ZXI9InVybCgjQSkiLz4mI3hhOwkJPC9tYXNrPiYjeGE7CTwvZGVmcz4mI3hhOwk8ZyBjbGFzcz0ic3QwIj4mI3hhOwkJPGNpcmNsZSBjeD0iMTYuMTMiIGN5PSI2LjIxIiByPSIxLjcyIi8+JiN4YTsJCTxjaXJjbGUgY3g9IjIuMTkiIGN5PSI2LjIxIiByPSIxLjcyIi8+JiN4YTsJCTxjaXJjbGUgY3g9IjkuMTYiIGN5PSIxOC4yOCIgcj0iMS43MiIvPiYjeGE7CTwvZz4mI3hhOwk8ZyBtYXNrPSJ1cmwoI0IpIiB0cmFuc2Zvcm09InRyYW5zbGF0ZSgtMi44NCAtMikiPiYjeGE7CQk8cGF0aCB0cmFuc2Zvcm09Im1hdHJpeCguNSAtLjg3IC44NyAuNSAtNC41OSAyMC41MykiIGQ9Ik0xNC42OSAxMC4yMmgxLjU5djguMDRoLTEuNTl6IiBjbGFzcz0ic3QxIi8+JiN4YTsJCTxwYXRoIHRyYW5zZm9ybT0icm90YXRlKDMzMCA4LjUyMyAxNC4yNDQpIiBkPSJNNC40OSAxMy40NWg4LjA0djEuNTlINC40OXoiIGNsYXNzPSJzdDEiLz4mI3hhOwkJPHBhdGggZD0iTTExLjIgNC4xOWgxLjU5djguMDRIMTEuMnoiIGNsYXNzPSJzdDEiLz4mI3hhOwk8L2c+JiN4YTsJPGcgY2xhc3M9InN0MiI+JiN4YTsJCTxjaXJjbGUgY3g9IjkuMTYiIGN5PSIxMC4yMyIgcj0iMi43OCIvPiYjeGE7CQk8Y2lyY2xlIGN4PSIyLjE5IiBjeT0iMTQuMjUiIHI9IjIuMTkiLz4mI3hhOwkJPGNpcmNsZSBjeD0iMTYuMTMiIGN5PSIxNC4yNSIgcj0iMi4xOSIvPiYjeGE7CQk8Y2lyY2xlIGN4PSI5LjE2IiBjeT0iMi4xOSIgcj0iMi4xOSIvPiYjeGE7CTwvZz4mI3hhOzwvc3ZnPg==;" parent="1" vertex="1">
          <mxGeometry x="20" y="110" width="58" height="64.11" as="geometry" />
        </mxCell>
        <mxCell id="-qRNFbUYzHUVRTCJPart-14" style="edgeStyle=orthogonalEdgeStyle;rounded=0;orthogonalLoop=1;jettySize=auto;html=1;entryX=0.5;entryY=0;entryDx=0;entryDy=0;" parent="1" source="-qRNFbUYzHUVRTCJPart-2" target="-qRNFbUYzHUVRTCJPart-13" edge="1">
          <mxGeometry relative="1" as="geometry" />
        </mxCell>
        <mxCell id="-qRNFbUYzHUVRTCJPart-2" value="Cloud&#xa;Functions" style="sketch=0;html=1;verticalAlign=top;labelPosition=center;verticalLabelPosition=bottom;align=center;spacingTop=-6;fontSize=11;fontStyle=1;fontColor=#999999;shape=image;aspect=fixed;imageAspect=0;image=data:image/svg+xml,PHN2ZyB4bWxucz0iaHR0cDovL3d3dy53My5vcmcvMjAwMC9zdmciIHhtbG5zOnY9Imh0dHBzOi8vdmVjdGEuaW8vbmFubyIgd2lkdGg9IjIwIiBoZWlnaHQ9IjE5Ljk4OTk5OTc3MTExODE2NCIgdmlld0JveD0iMCAwIDIwIDE5Ljk4OTk5OTc3MTExODE2NCI+JiN4YTsJPHN0eWxlIHR5cGU9InRleHQvY3NzIj4mI3hhOwkuc3Qwe2ZpbGw6IzQyODVmNDt9JiN4YTsJLnN0MXtmaWxsOiM2NjlkZjY7fSYjeGE7CS5zdDJ7ZmlsbDojYWVjYmZhO30mI3hhOwk8L3N0eWxlPiYjeGE7CTxwYXRoIGNsYXNzPSJzdDEiIGQ9Ik0zIDMuOTlMMCA2LjQydjcuMTNsMyAyLjQ0eiIvPiYjeGE7CTxwYXRoIGNsYXNzPSJzdDAiIGQ9Ik0zIDMuOTlsLTMgNCAzLTJ6bS0zIDhsMyA0di0yeiIvPiYjeGE7CTxwYXRoIGNsYXNzPSJzdDIiIGQ9Ik0wIDE1Ljk5bDQgNCAyLTItNi02em0uMDEtOEw1Ljk5IDJsLTItMkwwIDMuOTl6Ii8+JiN4YTsJPHBhdGggY2xhc3M9InN0MSIgZD0iTTE3IDE2bDMtMi40MlY2LjQ0TDE3IDR6Ii8+JiN4YTsJPHBhdGggY2xhc3M9InN0MCIgZD0iTTE3IDE2bDMtNC0zIDJ6bTMtOGwtMy00djJ6Ii8+JiN4YTsJPGcgY2xhc3M9InN0MiI+JiN4YTsJCTxwYXRoIGQ9Ik0yMCA0bC00LTQtMiAyIDYgNnptLS4wMSA4bC01Ljk4IDUuOTkgMiAyTDIwIDE2eiIvPiYjeGE7CQk8Y2lyY2xlIGN4PSI2IiBjeT0iOS45OSIgcj0iMSIvPiYjeGE7CQk8Y2lyY2xlIGN4PSIxMCIgY3k9IjkuOTkiIHI9IjEiLz4mI3hhOwkJPGNpcmNsZSBjeD0iMTMuOTkiIGN5PSI5Ljk5IiByPSIxIi8+JiN4YTsJPC9nPiYjeGE7PC9zdmc+;" parent="1" vertex="1">
          <mxGeometry x="158" y="300" width="42" height="34" as="geometry" />
        </mxCell>
        <mxCell id="-qRNFbUYzHUVRTCJPart-7" value="Cloud&#xa;Storage" style="sketch=0;html=1;verticalAlign=top;labelPosition=center;verticalLabelPosition=bottom;align=center;spacingTop=-6;fontSize=11;fontStyle=1;fontColor=#999999;shape=image;aspect=fixed;imageAspect=0;image=data:image/svg+xml,PHN2ZyB4bWxucz0iaHR0cDovL3d3dy53My5vcmcvMjAwMC9zdmciIHhtbG5zOnY9Imh0dHBzOi8vdmVjdGEuaW8vbmFubyIgd2lkdGg9IjIwIiBoZWlnaHQ9IjE2IiB2aWV3Qm94PSIwIDAgMjAgMTYiPiYjeGE7CTxzdHlsZSB0eXBlPSJ0ZXh0L2NzcyI+JiN4YTsJLnN0MHtmaWxsOiM0Mjg1ZjQ7fSYjeGE7CS5zdDF7ZmlsbDojNjY5ZGY2O30mI3hhOwkuc3Qye2ZpbGw6I2FlY2JmYTt9JiN4YTsJLnN0M3tmaWxsOiNmZmY7fSYjeGE7CTwvc3R5bGU+JiN4YTsJPHBhdGggY2xhc3M9InN0MiIgZD0iTTAgMGgyMHY3SDB6Ii8+JiN4YTsJPHBhdGggY2xhc3M9InN0MSIgZD0iTTE4IDBoMnY3aC0yeiIvPiYjeGE7CTxwYXRoIGNsYXNzPSJzdDAiIGQ9Ik0xOCA3bDItN2gtMnoiLz4mI3hhOwk8cGF0aCBjbGFzcz0ic3QxIiBkPSJNMCAwaDJ2N0gweiIvPiYjeGE7CTxnIGNsYXNzPSJzdDMiPiYjeGE7CQk8cGF0aCBkPSJNNCAzaDZ2MUg0eiIvPiYjeGE7CQk8cmVjdCB4PSIxMyIgeT0iMiIgd2lkdGg9IjMiIGhlaWdodD0iMyIgcng9IjEuNSIvPiYjeGE7CTwvZz4mI3hhOwk8cGF0aCBjbGFzcz0ic3QyIiBkPSJNMCA5aDIwdjdIMHoiLz4mI3hhOwk8cGF0aCBjbGFzcz0ic3QxIiBkPSJNMTggOWgydjdoLTJ6Ii8+JiN4YTsJPHBhdGggY2xhc3M9InN0MCIgZD0iTTE4IDE2bDItN2gtMnoiLz4mI3hhOwk8cGF0aCBjbGFzcz0ic3QxIiBkPSJNMCA5aDJ2N0gweiIvPiYjeGE7CTxnIGNsYXNzPSJzdDMiPiYjeGE7CQk8cGF0aCBkPSJNNCAxMmg2djFINHoiLz4mI3hhOwkJPHJlY3QgeD0iMTMiIHk9IjExIiB3aWR0aD0iMyIgaGVpZ2h0PSIzIiByeD0iMS41Ii8+JiN4YTsJPC9nPiYjeGE7PC9zdmc+;" parent="1" vertex="1">
          <mxGeometry x="280" y="121.06" width="42" height="34" as="geometry" />
        </mxCell>
        <mxCell id="-qRNFbUYzHUVRTCJPart-8" style="edgeStyle=orthogonalEdgeStyle;rounded=0;orthogonalLoop=1;jettySize=auto;html=1;entryX=1;entryY=0.5;entryDx=0;entryDy=0;" parent="1" source="-qRNFbUYzHUVRTCJPart-7" target="gCd-4j0y3lT0MiKqZrek-1" edge="1">
          <mxGeometry relative="1" as="geometry" />
        </mxCell>
        <mxCell id="gCd-4j0y3lT0MiKqZrek-3" style="edgeStyle=orthogonalEdgeStyle;rounded=0;orthogonalLoop=1;jettySize=auto;html=1;" edge="1" parent="1" source="-qRNFbUYzHUVRTCJPart-9" target="-qRNFbUYzHUVRTCJPart-1">
          <mxGeometry relative="1" as="geometry" />
        </mxCell>
        <mxCell id="-qRNFbUYzHUVRTCJPart-9" value="Cloud&#xa;Run" style="sketch=0;html=1;verticalAlign=top;labelPosition=center;verticalLabelPosition=bottom;align=center;spacingTop=-6;fontSize=11;fontStyle=1;fontColor=#999999;shape=image;aspect=fixed;imageAspect=0;image=data:image/svg+xml,PHN2ZyB4bWxucz0iaHR0cDovL3d3dy53My5vcmcvMjAwMC9zdmciIHhtbG5zOnY9Imh0dHBzOi8vdmVjdGEuaW8vbmFubyIgd2lkdGg9IjM2NS40NjQ5OTY3NzA0MjQ5MyIgaGVpZ2h0PSIzNzkuMjIyOTk0NDYzNTc3OTUiIHZpZXdCb3g9IjAgMCA5Ni42OTU5OTkxNDU1MDc4MSAxMDAuMzM1OTk4NTM1MTU2MjUiPiYjeGE7PHN0eWxlIHR5cGU9InRleHQvY3NzIj4mI3hhOwkuc3Qwe2ZpbGw6IzQyODVmNDt9JiN4YTsJLnN0MXtmaWxsOiNhZWNiZmE7fSYjeGE7PC9zdHlsZT4mI3hhOwk8cGF0aCBjbGFzcz0ic3QwIiBkPSJNMjkuNzk0IDEwMC4zMzZMNDYuOTIgNTAuMTY4aDQ5Ljc3NnpNMCA5OS42NzFsMTIuOTc2LTQ5LjUwMkgyOS4yMkwxNi44OTcgOTIuMDU0eiIvPiYjeGE7CTxwYXRoIGNsYXNzPSJzdDEiIGQ9Ik0yOS43OTQgMEw0Ni45MiA1MC4xNjhoNDkuNzc2ek0wIC42NjZsMTIuOTc2IDQ5LjUwMkgyOS4yMkwxNi44OTcgOC4yODN6Ii8+JiN4YTs8L3N2Zz4=;" parent="1" vertex="1">
          <mxGeometry x="-90" y="121.06" width="42" height="42" as="geometry" />
        </mxCell>
        <mxCell id="-qRNFbUYzHUVRTCJPart-12" style="edgeStyle=orthogonalEdgeStyle;rounded=0;orthogonalLoop=1;jettySize=auto;html=1;" parent="1" source="-qRNFbUYzHUVRTCJPart-11" target="-qRNFbUYzHUVRTCJPart-1" edge="1">
          <mxGeometry relative="1" as="geometry">
            <mxPoint x="170" y="57" as="sourcePoint" />
          </mxGeometry>
        </mxCell>
        <mxCell id="-qRNFbUYzHUVRTCJPart-17" style="edgeStyle=orthogonalEdgeStyle;rounded=0;orthogonalLoop=1;jettySize=auto;html=1;entryX=0;entryY=0.5;entryDx=0;entryDy=0;" parent="1" source="-qRNFbUYzHUVRTCJPart-13" target="-qRNFbUYzHUVRTCJPart-15" edge="1">
          <mxGeometry relative="1" as="geometry" />
        </mxCell>
        <mxCell id="-qRNFbUYzHUVRTCJPart-18" style="edgeStyle=orthogonalEdgeStyle;rounded=0;orthogonalLoop=1;jettySize=auto;html=1;" parent="1" source="-qRNFbUYzHUVRTCJPart-13" target="-qRNFbUYzHUVRTCJPart-16" edge="1">
          <mxGeometry relative="1" as="geometry" />
        </mxCell>
        <mxCell id="gCd-4j0y3lT0MiKqZrek-8" style="edgeStyle=orthogonalEdgeStyle;rounded=0;orthogonalLoop=1;jettySize=auto;html=1;entryX=0;entryY=0.5;entryDx=0;entryDy=0;" edge="1" parent="1" source="-qRNFbUYzHUVRTCJPart-13" target="gCd-4j0y3lT0MiKqZrek-7">
          <mxGeometry relative="1" as="geometry" />
        </mxCell>
        <mxCell id="-qRNFbUYzHUVRTCJPart-13" value="Event Handler Resolver" style="rounded=1;whiteSpace=wrap;html=1;" parent="1" vertex="1">
          <mxGeometry x="119" y="400" width="121" height="60" as="geometry" />
        </mxCell>
        <mxCell id="-qRNFbUYzHUVRTCJPart-22" style="edgeStyle=orthogonalEdgeStyle;rounded=0;orthogonalLoop=1;jettySize=auto;html=1;exitX=1;exitY=0.5;exitDx=0;exitDy=0;entryX=0;entryY=0.5;entryDx=0;entryDy=0;" parent="1" source="-qRNFbUYzHUVRTCJPart-15" target="-qRNFbUYzHUVRTCJPart-19" edge="1">
          <mxGeometry relative="1" as="geometry">
            <Array as="points">
              <mxPoint x="480" y="430" />
              <mxPoint x="480" y="340" />
            </Array>
          </mxGeometry>
        </mxCell>
        <mxCell id="-qRNFbUYzHUVRTCJPart-24" style="edgeStyle=orthogonalEdgeStyle;rounded=0;orthogonalLoop=1;jettySize=auto;html=1;entryX=0;entryY=0.5;entryDx=0;entryDy=0;" parent="1" source="-qRNFbUYzHUVRTCJPart-15" target="-qRNFbUYzHUVRTCJPart-21" edge="1">
          <mxGeometry relative="1" as="geometry">
            <Array as="points">
              <mxPoint x="500" y="430" />
              <mxPoint x="500" y="430" />
            </Array>
          </mxGeometry>
        </mxCell>
        <mxCell id="-qRNFbUYzHUVRTCJPart-15" value="Storage Event Handler&lt;div&gt;type: Storage Event&lt;/div&gt;" style="rounded=1;whiteSpace=wrap;html=1;" parent="1" vertex="1">
          <mxGeometry x="320" y="400" width="120" height="60" as="geometry" />
        </mxCell>
        <mxCell id="-qRNFbUYzHUVRTCJPart-16" value="Other Events Handler" style="rounded=1;whiteSpace=wrap;html=1;" parent="1" vertex="1">
          <mxGeometry x="119" y="560" width="120" height="60" as="geometry" />
        </mxCell>
        <mxCell id="-qRNFbUYzHUVRTCJPart-29" style="edgeStyle=orthogonalEdgeStyle;rounded=0;orthogonalLoop=1;jettySize=auto;html=1;" parent="1" source="-qRNFbUYzHUVRTCJPart-19" target="-qRNFbUYzHUVRTCJPart-28" edge="1">
          <mxGeometry relative="1" as="geometry" />
        </mxCell>
        <mxCell id="-qRNFbUYzHUVRTCJPart-19" value="CreateOrUpdateTemplate Event" style="rounded=1;whiteSpace=wrap;html=1;" parent="1" vertex="1">
          <mxGeometry x="520" y="310" width="150" height="60" as="geometry" />
        </mxCell>
        <mxCell id="-qRNFbUYzHUVRTCJPart-21" value="DeleteTemplate Event" style="rounded=1;whiteSpace=wrap;html=1;" parent="1" vertex="1">
          <mxGeometry x="520" y="400" width="150" height="60" as="geometry" />
        </mxCell>
        <mxCell id="-qRNFbUYzHUVRTCJPart-26" value="Mailchimp Template Provider" style="rounded=1;whiteSpace=wrap;html=1;" parent="1" vertex="1">
          <mxGeometry x="920" y="37" width="150" height="40" as="geometry" />
        </mxCell>
        <mxCell id="-qRNFbUYzHUVRTCJPart-34" style="edgeStyle=orthogonalEdgeStyle;rounded=0;orthogonalLoop=1;jettySize=auto;html=1;entryX=0;entryY=0.5;entryDx=0;entryDy=0;" parent="1" source="-qRNFbUYzHUVRTCJPart-28" target="-qRNFbUYzHUVRTCJPart-26" edge="1">
          <mxGeometry relative="1" as="geometry" />
        </mxCell>
        <mxCell id="-qRNFbUYzHUVRTCJPart-35" style="edgeStyle=orthogonalEdgeStyle;rounded=0;orthogonalLoop=1;jettySize=auto;html=1;entryX=0;entryY=0.5;entryDx=0;entryDy=0;" parent="1" source="-qRNFbUYzHUVRTCJPart-28" target="-qRNFbUYzHUVRTCJPart-30" edge="1">
          <mxGeometry relative="1" as="geometry" />
        </mxCell>
        <mxCell id="-qRNFbUYzHUVRTCJPart-36" style="edgeStyle=orthogonalEdgeStyle;rounded=0;orthogonalLoop=1;jettySize=auto;html=1;entryX=0;entryY=0.5;entryDx=0;entryDy=0;" parent="1" source="-qRNFbUYzHUVRTCJPart-28" target="-qRNFbUYzHUVRTCJPart-31" edge="1">
          <mxGeometry relative="1" as="geometry" />
        </mxCell>
        <mxCell id="-qRNFbUYzHUVRTCJPart-37" style="edgeStyle=orthogonalEdgeStyle;rounded=0;orthogonalLoop=1;jettySize=auto;html=1;entryX=0;entryY=0.5;entryDx=0;entryDy=0;" parent="1" source="-qRNFbUYzHUVRTCJPart-28" target="-qRNFbUYzHUVRTCJPart-32" edge="1">
          <mxGeometry relative="1" as="geometry" />
        </mxCell>
        <mxCell id="-qRNFbUYzHUVRTCJPart-28" value="Template&lt;div&gt;Provider&amp;nbsp;&lt;/div&gt;&lt;div&gt;Resolver&lt;/div&gt;" style="rhombus;whiteSpace=wrap;html=1;" parent="1" vertex="1">
          <mxGeometry x="720" y="160" width="120" height="120" as="geometry" />
        </mxCell>
        <mxCell id="-qRNFbUYzHUVRTCJPart-30" value="SendGrid Template Provider" style="rounded=1;whiteSpace=wrap;html=1;" parent="1" vertex="1">
          <mxGeometry x="920" y="90" width="150" height="40" as="geometry" />
        </mxCell>
        <mxCell id="-qRNFbUYzHUVRTCJPart-31" value="Mock Template Provider" style="rounded=1;whiteSpace=wrap;html=1;" parent="1" vertex="1">
          <mxGeometry x="920" y="142.06" width="150" height="40" as="geometry" />
        </mxCell>
        <mxCell id="-qRNFbUYzHUVRTCJPart-32" value="Mailgun Template Provider" style="rounded=1;whiteSpace=wrap;html=1;" parent="1" vertex="1">
          <mxGeometry x="920" y="-18" width="150" height="40" as="geometry" />
        </mxCell>
        <mxCell id="-qRNFbUYzHUVRTCJPart-38" value="&lt;span style=&quot;color: rgb(55, 71, 79); font-family: &amp;quot;Roboto Mono&amp;quot;, monospace; font-size: 14.4px; text-align: left; background-color: rgb(241, 243, 244);&quot;&gt;google.cloud.pubsub.topic.v1.messagePublished&lt;/span&gt;&lt;div&gt;&lt;span style=&quot;text-align: left; background-color: rgb(241, 243, 244); color: rgb(55, 71, 79);&quot;&gt;&lt;font face=&quot;Roboto Mono, monospace&quot; color=&quot;#37474f&quot;&gt;&lt;span style=&quot;font-size: 14.4px;&quot;&gt;google.cloud.storage.object.v1.deleted&lt;/span&gt;&lt;/font&gt;&lt;/span&gt;&lt;/div&gt;&lt;div&gt;&lt;span style=&quot;text-align: left; background-color: rgb(241, 243, 244); color: rgb(55, 71, 79);&quot;&gt;&lt;font face=&quot;Roboto Mono, monospace&quot; color=&quot;#37474f&quot;&gt;&lt;span style=&quot;font-size: 14.4px;&quot;&gt;google.cloud.storage.object.v1.finalized&lt;/span&gt;&lt;/font&gt;&lt;/span&gt;&lt;/div&gt;" style="text;html=1;align=center;verticalAlign=middle;whiteSpace=wrap;rounded=0;" parent="1" vertex="1">
          <mxGeometry x="250" y="190" width="390" height="77.94" as="geometry" />
        </mxCell>
        <mxCell id="gCd-4j0y3lT0MiKqZrek-5" style="edgeStyle=orthogonalEdgeStyle;rounded=0;orthogonalLoop=1;jettySize=auto;html=1;" edge="1" parent="1" source="gCd-4j0y3lT0MiKqZrek-1" target="-qRNFbUYzHUVRTCJPart-2">
          <mxGeometry relative="1" as="geometry" />
        </mxCell>
        <mxCell id="gCd-4j0y3lT0MiKqZrek-1" value="Eventarc" style="sketch=0;html=1;verticalAlign=top;labelPosition=center;verticalLabelPosition=bottom;align=center;spacingTop=-6;fontSize=11;fontStyle=1;fontColor=#999999;shape=image;aspect=fixed;imageAspect=0;image=data:image/svg+xml,PHN2ZyB4bWxucz0iaHR0cDovL3d3dy53My5vcmcvMjAwMC9zdmciIGlkPSJzdmc4MzgiIHZlcnNpb249IjEuMSIgdmlld0JveD0iMCAwIDE2NC4zNDc1OCAxNjQuMzQ3NiIgaGVpZ2h0PSIxNjQuMzQ3Nm1tIiB3aWR0aD0iMTY0LjM0NzU4bW0iPiYjeGE7ICA8cGF0aCBkPSJtIDEyMy43NzczOCwzMy41NDQ5NDIgLTg5LjgwODYwMSw4OS4zMjYxNjggOC4xMDkzNzUsOC4xNTQzIDg5LjgwODU5NiwtODkuMzI2MTY3IHogTSAxNC41MDgxOTcsMzUuNTkxNzMzIEMgNS4zNjEyNTIsNDguODM4NjEzIDAsNjQuODkxMTUzIDAsODIuMTczNzkzIGMgMWUtNiw5LjI1NTM0IDEuNTYwNDAxLDE4LjE0NzQzNyA0LjM5MzUzLDI2LjQ1NTIyNyAzLjA2OTg2MywtMi40MzY5NiA2LjUxMjg4MywtNC4zNjI1NSAxMC4xOTYyNzcsLTUuNzAyNDkgLTIuMDA0OTk2LC02LjU2MDIwNyAtMy4wODk3MzIsLTEzLjUyNjU2NyAtMy4wODk3MzIsLTIwLjc1MjczNyAwLC0xNC45NzI0NyA0LjYyOTY1LC0yOC44NDEyNyAxMi41Mzg3NywtNDAuMjU2MjEgeiBNIDQxLjUwNzc0NSwyNC4zMjQ5NjYgYyAxMS40OTIxMTEsLTguMDgzNDczIDI1LjUxMzkxOSwtMTIuODI0ODk0IDQwLjY2NjA1MSwtMTIuODI0ODk0IDcuMjIxOTksMCAxNC4xODYwMSwxLjA3OTcyMiAyMC43NDI5MjQsMy4wODI0OTkgMS4zOTExMSwtMy42ODE2MDggMy4zNjk2LC03LjExMzQ3NCA1Ljg1ODU1LC0xMC4xNjIxNyBDIDEwMC40MjgzMywxLjU1NzMzMiA5MS40ODAwOTYsMCA4Mi4xNzM3OTYsMCA2NC42NzY0MzcsMCA0OC40Mzk5NCw1LjQ5NTI5MiAzNS4wOTkzMiwxNC44NTA4NjEgWiBNIDEyMi43OTAzNiwxNDAuMDU3NCBjIC0xMS40ODI4Niw4LjA2MjMgLTI1LjQ4NjE3NCwxMi43OTAxMiAtNDAuNjE2NTY0LDEyLjc5MDExIC03LjI4NTE4OSwwIC0xNC4zMDc5NSwtMS4wOTg1OCAtMjAuOTE1MDAzLC0zLjEzNTIxIC0xLjM0OTc5LDMuNjc4NzYgLTMuMjg0MjYyLDcuMTE1NjUgLTUuNzI4ODUxLDEwLjE3ODE5IDguMzYxNTE2LDIuODc0MjYgMTcuMzE4NTU5LDQuNDU3MDkgMjYuNjQzODU0LDQuNDU3MSAxNy40OTQ3OSwwIDMzLjcyOTA5NCwtNS40OTM2OCA0Ny4wNjg2MDQsLTE0Ljg0Njc0IHogbSAyNy4xMzQyMiwtMTEuNDI1MTUgYyA5LjA5NTAzLC0xMy4yMjMwNyAxNC40MjMwMSwtMjkuMjI5NTI3IDE0LjQyMzAxLC00Ni40NTg0NTcgMCwtOS4yNTU0MSAtMS41MzkxNywtMTguMTU3MiAtNC4zNzIzNCwtMjYuNDY1MDUgLTMuMDUxMzIsMi40ODkxOCAtNi40ODYwMiw0LjQ2NzE3IC0xMC4xNzA0NCw1Ljg1NzAxIDEuOTc2NTMsNi41MTc2NSAzLjA0MjcxLDEzLjQzNTM4IDMuMDQyNzEsMjAuNjA4MDQgMCwxNS4wODgxNCAtNC43MDE0NSwyOS4wNTU0NzcgLTEyLjcyMjY0LDQwLjUyMDI5NyB6IiBzdHlsZT0iY29sb3I6IzAwMDAwMDtvcGFjaXR5OjE7ZmlsbDojNDI4NWY0O2ZpbGwtb3BhY2l0eToxOy1pbmtzY2FwZS1zdHJva2U6bm9uZSIvPiYjeGE7ICA8cGF0aCBkPSJNIDEwNi4wMDc4LDgyLjY0Njc2MyBBIDIzLjc1ODk3NiwyMy43NTg5NzYgMCAwIDEgODIuMjQ4ODE2LDEwNi40MDU3NCAyMy43NTg5NzYsMjMuNzU4OTc2IDAgMCAxIDU4LjQ4OTg0LDgyLjY0Njc2MyAyMy43NTg5NzYsMjMuNzU4OTc2IDAgMCAxIDgyLjI0ODgxNiw1OC44ODc3ODMgMjMuNzU4OTc2LDIzLjc1ODk3NiAwIDAgMSAxMDYuMDA3OCw4Mi42NDY3NjMgWiIgc3R5bGU9ImNvbG9yOiMwMDAwMDA7b3BhY2l0eToxO2ZpbGw6IzY2OWRmNjtmaWxsLW9wYWNpdHk6MTtzdHJva2Utd2lkdGg6MTEuNTtzdHJva2UtbGluZWNhcDpyb3VuZDstaW5rc2NhcGUtc3Ryb2tlOm5vbmUiLz4mI3hhOyAgPHBhdGggZD0ibSAxMzYuODc4OTQsMTE3LjEzNDc4IGMgLTExLjA1Nzc1LDAgLTIwLjE0NDU0LDkuMDg4NzQgLTIwLjE0NDUzLDIwLjE0NjQ5IDAsMTEuMDU3NzQgOS4wODY3OSwyMC4xNDQ1MyAyMC4xNDQ1MywyMC4xNDQ1MyAxMS4wNTc3MywwIDIwLjE0NjQ4LC05LjA4NjggMjAuMTQ2NDgsLTIwLjE0NDUzIDFlLTUsLTExLjA1Nzc0IC05LjA4ODc0LC0yMC4xNDY0OCAtMjAuMTQ2NDgsLTIwLjE0NjQ5IHogbSAwLDExLjUgYyA0Ljg0MjY4LDAgOC42NDY0OSwzLjgwMzggOC42NDY0OCw4LjY0NjQ5IDAsNC44NDI2OCAtMy44MDM4LDguNjQ0NTMgLTguNjQ2NDgsOC42NDQ1MyAtNC44NDI2OCwwIC04LjY0NDUzLC0zLjgwMTg1IC04LjY0NDUzLC04LjY0NDUzIDAsLTQuODQyNjkgMy44MDE4NCwtOC42NDY0OSA4LjY0NDUzLC04LjY0NjQ5IHogTSAyNy4wOTU3MzIsMTE2Ljk3NDYzIGMgLTExLjA1NzczNiwwIC0yMC4xNDQ1MjgsOS4wODY3OSAtMjAuMTQ0NTMxLDIwLjE0NDUzIC01ZS02LDExLjA1Nzc0IDkuMDg2NzksMjAuMTQ2NDggMjAuMTQ0NTMxLDIwLjE0NjQ4IDExLjA1Nzc0MiwwIDIwLjE0NjQ4OSwtOS4wODg3NCAyMC4xNDY0ODUsLTIwLjE0NjQ4IC0zZS02LC0xMS4wNTc3NCAtOS4wODg3NDgsLTIwLjE0NDUzIC0yMC4xNDY0ODUsLTIwLjE0NDUzIHogbSAwLDExLjUgYyA0Ljg0MjY4MiwwIDguNjQ2NDgzLDMuODAxODUgOC42NDY0ODUsOC42NDQ1MyAyZS02LDQuODQyNjggLTMuODAzOCw4LjY0NjQ4IC04LjY0NjQ4NSw4LjY0NjQ4IC00Ljg0MjY4NCwwIC04LjY0NDUzMywtMy44MDM4IC04LjY0NDUzMSwtOC42NDY0OCAxMGUtNywtNC44NDI2OCAzLjgwMTg0OSwtOC42NDQ1MyA4LjY0NDUzMSwtOC42NDQ1MyB6IE0gMTM2Ljk0MTQ0LDcuMzQzNzcgYyAtMTEuMDU3NzQsM2UtNiAtMjAuMTQ2NDksOS4wODY3OTUgLTIwLjE0NjQ5LDIwLjE0NDUzMSAwLDExLjA1Nzc0MiA5LjA4ODc1LDIwLjE0NjQ4MiAyMC4xNDY0OSwyMC4xNDY0ODIgMTEuMDU3NzQsMWUtNSAyMC4xNDQ1MywtOS4wODg3NCAyMC4xNDQ1MywtMjAuMTQ2NDgyIDAsLTExLjA1Nzc0MSAtOS4wODY3OSwtMjAuMTQ0NTM2IC0yMC4xNDQ1MywtMjAuMTQ0NTMxIHogbSAwLDExLjUgYyA0Ljg0MjY4LC0yZS02IDguNjQ0NTMsMy44MDE4NDcgOC42NDQ1Myw4LjY0NDUzMSAwLDQuODQyNjg1IC0zLjgwMTg1LDguNjQ2NDgyIC04LjY0NDUzLDguNjQ2NDgyIC00Ljg0MjY4LDAgLTguNjQ2NDksLTMuODAzNzk5IC04LjY0NjQ5LC04LjY0NjQ4MiAwLC00Ljg0MjY4MiAzLjgwMzgxLC04LjY0NDUzIDguNjQ2NDksLTguNjQ0NTMxIHogTSAyNy4wODk4NzMsNy40Mzc1MiBjIC0xMS4wNTc3MzksLTFlLTYgLTIwLjE0NDUzMSw5LjA4Njc5MiAtMjAuMTQ0NTMxLDIwLjE0NDUzMSAyZS02LDExLjA1Nzc0MiA5LjA4Njc5NCwyMC4xNDQ1MzIgMjAuMTQ0NTMxLDIwLjE0NDUzMiAxMS4wNTc3MzYsMCAyMC4xNDY0ODIsLTkuMDg2OCAyMC4xNDY0ODQsLTIwLjE0NDUzMiAwLC0xMS4wNTc3MzggLTkuMDg4NzQ2LC0yMC4xNDQ1MzEgLTIwLjE0NjQ4NCwtMjAuMTQ0NTMxIHogbSAwLDExLjUgYyA0Ljg0MjY4MywwIDguNjQ2NDg0LDMuODAxODQ4IDguNjQ2NDg0LDguNjQ0NTMxIC0xMGUtNyw0Ljg0MjY4MiAtMy44MDM4MDIsOC42NDQ1MzIgLTguNjQ2NDg0LDguNjQ0NTMyIC00Ljg0MjY4MywwIC04LjY0NDUzLC0zLjgwMTg0OSAtOC42NDQ1MzEsLTguNjQ0NTMyIDAsLTQuODQyNjgzIDMuODAxODQ4LC04LjY0NDUzMSA4LjY0NDUzMSwtOC42NDQ1MzEgeiIgc3R5bGU9ImNvbG9yOiMwMDAwMDA7b3BhY2l0eToxO2ZpbGw6I2FlY2JmYTtmaWxsLW9wYWNpdHk6MTtzdHJva2UtbGluZWNhcDpyb3VuZDstaW5rc2NhcGUtc3Ryb2tlOm5vbmUiLz4mI3hhOzwvc3ZnPg==;" vertex="1" parent="1">
          <mxGeometry x="158" y="199" width="42" height="42" as="geometry" />
        </mxCell>
        <mxCell id="-qRNFbUYzHUVRTCJPart-11" value="Cloud&#xa;Functions" style="sketch=0;html=1;verticalAlign=top;labelPosition=center;verticalLabelPosition=bottom;align=center;spacingTop=-6;fontSize=11;fontStyle=1;fontColor=#999999;shape=image;aspect=fixed;imageAspect=0;image=data:image/svg+xml,PHN2ZyB4bWxucz0iaHR0cDovL3d3dy53My5vcmcvMjAwMC9zdmciIHhtbG5zOnY9Imh0dHBzOi8vdmVjdGEuaW8vbmFubyIgd2lkdGg9IjIwIiBoZWlnaHQ9IjE5Ljk4OTk5OTc3MTExODE2NCIgdmlld0JveD0iMCAwIDIwIDE5Ljk4OTk5OTc3MTExODE2NCI+JiN4YTsJPHN0eWxlIHR5cGU9InRleHQvY3NzIj4mI3hhOwkuc3Qwe2ZpbGw6IzQyODVmNDt9JiN4YTsJLnN0MXtmaWxsOiM2NjlkZjY7fSYjeGE7CS5zdDJ7ZmlsbDojYWVjYmZhO30mI3hhOwk8L3N0eWxlPiYjeGE7CTxwYXRoIGNsYXNzPSJzdDEiIGQ9Ik0zIDMuOTlMMCA2LjQydjcuMTNsMyAyLjQ0eiIvPiYjeGE7CTxwYXRoIGNsYXNzPSJzdDAiIGQ9Ik0zIDMuOTlsLTMgNCAzLTJ6bS0zIDhsMyA0di0yeiIvPiYjeGE7CTxwYXRoIGNsYXNzPSJzdDIiIGQ9Ik0wIDE1Ljk5bDQgNCAyLTItNi02em0uMDEtOEw1Ljk5IDJsLTItMkwwIDMuOTl6Ii8+JiN4YTsJPHBhdGggY2xhc3M9InN0MSIgZD0iTTE3IDE2bDMtMi40MlY2LjQ0TDE3IDR6Ii8+JiN4YTsJPHBhdGggY2xhc3M9InN0MCIgZD0iTTE3IDE2bDMtNC0zIDJ6bTMtOGwtMy00djJ6Ii8+JiN4YTsJPGcgY2xhc3M9InN0MiI+JiN4YTsJCTxwYXRoIGQ9Ik0yMCA0bC00LTQtMiAyIDYgNnptLS4wMSA4bC01Ljk4IDUuOTkgMiAyTDIwIDE2eiIvPiYjeGE7CQk8Y2lyY2xlIGN4PSI2IiBjeT0iOS45OSIgcj0iMSIvPiYjeGE7CQk8Y2lyY2xlIGN4PSIxMCIgY3k9IjkuOTkiIHI9IjEiLz4mI3hhOwkJPGNpcmNsZSBjeD0iMTMuOTkiIGN5PSI5Ljk5IiByPSIxIi8+JiN4YTsJPC9nPiYjeGE7PC9zdmc+;" parent="1" vertex="1">
          <mxGeometry x="-90" y="43" width="42" height="34" as="geometry" />
        </mxCell>
        <mxCell id="gCd-4j0y3lT0MiKqZrek-7" value="Pub/Sub Event Handler&lt;div&gt;type: PubSub Event&lt;/div&gt;" style="rounded=1;whiteSpace=wrap;html=1;" vertex="1" parent="1">
          <mxGeometry x="320" y="480" width="120" height="60" as="geometry" />
        </mxCell>
        <mxCell id="gCd-4j0y3lT0MiKqZrek-11" style="edgeStyle=orthogonalEdgeStyle;rounded=0;orthogonalLoop=1;jettySize=auto;html=1;" edge="1" parent="1" source="gCd-4j0y3lT0MiKqZrek-10" target="gCd-4j0y3lT0MiKqZrek-1">
          <mxGeometry relative="1" as="geometry" />
        </mxCell>
        <mxCell id="gCd-4j0y3lT0MiKqZrek-10" value="Firestore" style="sketch=0;html=1;verticalAlign=top;labelPosition=center;verticalLabelPosition=bottom;align=center;spacingTop=-6;fontSize=11;fontStyle=1;fontColor=#999999;shape=image;aspect=fixed;imageAspect=0;image=data:image/svg+xml,PHN2ZyB4bWxucz0iaHR0cDovL3d3dy53My5vcmcvMjAwMC9zdmciIHhtbG5zOnY9Imh0dHBzOi8vdmVjdGEuaW8vbmFubyIgd2lkdGg9IjMyMy45MDU2MTAzOTg2NzUxNSIgaGVpZ2h0PSIzNzYuNDIyMjk0OTYzNjg0MDciIHZpZXdCb3g9Ii0wLjA5NzAwMDAwMjg2MTAyMjk1IDAuMjg3OTk5OTg3NjAyMjMzOSA4NS42OTk5OTY5NDgyNDIxOSA5OS41OTUwMDEyMjA3MDMxMiI+JiN4YTs8c3R5bGUgdHlwZT0idGV4dC9jc3MiPiYjeGE7CS5zdDB7ZmlsbDojYWVjYmZhO30mI3hhOwkuc3Qxe2ZpbGw6IzY2OWRmNjt9JiN4YTsJLnN0MntmaWxsOiM0Mjg1ZjQ7fSYjeGE7PC9zdHlsZT4mI3hhOwk8cGF0aCBjbGFzcz0ic3QwIiBkPSJNLS4wOTcgNzUuODE1VjU1Ljg3NGw0Mi44NS0yMC4xODN2MTkuMDd6bTAtMzUuNDAzVjIwLjQ3MUw0Mi43NTMuMjg4djE5LjA3eiIvPiYjeGE7CTxwYXRoIGNsYXNzPSJzdDEiIGQ9Ik04NS42MDMgNzUuODE1VjU1Ljg3NGwtNDIuODUtMjAuMTgzdjE5LjA3em0wLTM1LjQwM1YyMC40NzFMNDIuNzUzLjI4OHYxOS4wN3oiLz4mI3hhOwk8cGF0aCBjbGFzcz0ic3QyIiBkPSJNNDIuNzUzIDgwLjMxNGwxNi4yMTctNy41MjUgMjEuMDg0IDkuNzE3LTM3LjMwMSAxNy4zNzd6Ii8+JiN4YTs8L3N2Zz4=;" vertex="1" parent="1">
          <mxGeometry x="161.5" y="68" width="36" height="42" as="geometry" />
        </mxCell>
        <mxCell id="gCd-4j0y3lT0MiKqZrek-12" value="Triggers" style="text;html=1;align=center;verticalAlign=middle;whiteSpace=wrap;rounded=0;" vertex="1" parent="1">
          <mxGeometry x="78" y="230" width="60" height="30" as="geometry" />
        </mxCell>
        <mxCell id="gCd-4j0y3lT0MiKqZrek-14" value="Event Sources" style="text;html=1;align=center;verticalAlign=middle;whiteSpace=wrap;rounded=0;" vertex="1" parent="1">
          <mxGeometry x="250" y="48" width="60" height="30" as="geometry" />
        </mxCell>
      </root>
    </mxGraphModel>
  </diagram>
</mxfile>
